<svg width="80" height="34" viewBox="0 0 80 34" fill="none" xmlns="http://www.w3.org/2000/svg">
<rect x="46" width="34" height="34" rx="17" fill="#3456F3"/>
<path fill-rule="evenodd" clip-rule="evenodd" d="M64.7929 18.2639C63.361 19.6958 61.0394 19.6958 59.6075 18.2639C58.1755 16.832 58.1755 14.5104 59.6075 13.0784C61.0394 11.6465 63.361 11.6465 64.7929 13.0784C66.2248 14.5104 66.2248 16.832 64.7929 18.2639ZM65.2333 19.6469C63.2731 21.1462 60.4575 20.9995 58.6647 19.2067C56.712 17.2541 56.712 14.0883 58.6647 12.1356C60.6173 10.183 63.7831 10.183 65.7357 12.1356C67.5285 13.9284 67.6753 16.7438 66.1761 18.704L69.7428 22.2707L68.8 23.2135L65.2333 19.6469Z" fill="white"/>
</svg>
